<?xml version="1.0" encoding="utf-8"?>
<!-- Generator: Adobe Illustrator 19.1.0, SVG Export Plug-In . SVG Version: 6.00 Build 0)  -->
<svg version="1.1" id="Layer_1" xmlns="http://www.w3.org/2000/svg" xmlns:xlink="http://www.w3.org/1999/xlink" x="0px" y="0px"
	 viewBox="-232 153 175 175" style="enable-background:new -232 153 175 175;" xml:space="preserve">
<style type="text/css">
	.st0{fill:#FFFFFF;}
	.st1{enable-background:new    ;}
</style>
<g id="outline" inkscape:version="0.48.1 r9760" sodipodi:docname="twitter_bootstrap_logo.svg" xmlns:inkscape="http://www.inkscape.org/namespaces/inkscape" xmlns:dc="http://purl.org/dc/elements/1.1/" xmlns:svg="http://www.w3.org/2000/svg" xmlns:sodipodi="http://sodipodi.sourceforge.net/DTD/sodipodi-0.dtd" xmlns:rdf="http://www.w3.org/1999/02/22-rdf-syntax-ns#" xmlns:cc="http://creativecommons.org/ns#">
	<g id="bg_1_">
		<path class="st0" d="M-86.2,154.7c7.3,0,14.2,2.9,19.4,8.1c5.2,5.2,8.1,12.1,8.1,19.4v116.7c0,7.3-2.9,14.2-8.1,19.4
			c-5.2,5.2-12.1,8.1-19.4,8.1h-116.7c-7.3,0-14.2-2.9-19.4-8.1s-8.1-12.1-8.1-19.4V182.2c0-7.3,2.9-14.2,8.1-19.4
			c5.2-5.2,12.1-8.1,19.4-8.1H-86.2 M-86.2,153h-116.7c-16,0-29.2,13.1-29.2,29.2v116.7c0,16,13.1,29.2,29.2,29.2h116.7
			c16,0,29.2-13.1,29.2-29.2V182.2C-57,166-70.1,153-86.2,153L-86.2,153z"/>
	</g>
	<g id="B_2_" class="st1">
		<path class="st0" d="M-184.4,191h49.6c9.1,0,16.5,2.1,22,6.3s8.3,10.5,8.3,19c0,5.1-1.3,9.6-3.8,13.2c-2.5,3.7-6.1,6.5-10.8,8.5
			v0.3c6.3,1.3,11.1,4.3,14.3,8.9c3.2,4.6,4.9,10.4,4.9,17.4c0,4-0.7,7.8-2.1,11.2c-1.4,3.5-3.7,6.5-6.7,9c-3.1,2.5-6.9,4.5-11.7,6
			c-4.8,1.5-10.4,2.2-17,2.2h-46.9V191H-184.4z M-166.6,233.8h29.2c4.3,0,7.9-1.2,10.7-3.7c2.8-2.5,4.3-5.9,4.3-10.5
			c0-5.1-1.3-8.8-3.9-10.9c-2.6-2.1-6.3-3.1-11.2-3.1h-29.2v28.2H-166.6z M-166.6,278.5h31.6c5.4,0,9.7-1.4,12.6-4.2
			c3-2.8,4.5-6.8,4.5-12c0-5.1-1.5-8.9-4.5-11.7c-3-2.7-7.2-4.1-12.6-4.1h-31.6V278.5z"/>
	</g>
</g>
</svg>
