<?xml version="1.0" encoding="utf-8"?>
<!-- Generator: Adobe Illustrator 19.1.0, SVG Export Plug-In . SVG Version: 6.00 Build 0)  -->
<svg version="1.1" id="Capa_1" xmlns="http://www.w3.org/2000/svg" xmlns:xlink="http://www.w3.org/1999/xlink" x="0px" y="0px"
	 viewBox="-63 -16 512 512" style="enable-background:new -63 -16 512 512;" xml:space="preserve">
<style type="text/css">
	.st0{fill:#FFFFFF;}
</style>
<g>
	<path class="st0" d="M-32.7-16L8.3,444.8L192.7,496l184.9-51.3L418.7-16H-32.7z M342.4,415.4l-148.6,41.2v0.2l-0.4-0.1l-0.4,0.1
		v-0.2L44.4,415.4L9.3,21.7h368.2L342.4,415.4z M262.4,249.1l-6.5,73.3l-63,17l-0.1,0l-62.9-17l-4-45.1H69l7.9,88.8l115.8,32.1h0.1
		h0.1l0.1,0l115.7-32.1l15.5-173.5h-206l-5.2-57.9h216.1h0.2l5.1-56.5H51.3l15.2,170.9L262.4,249.1L262.4,249.1z"/>
</g>
</svg>
