<?xml version="1.0" encoding="utf-8"?>
<!-- Generator: Adobe Illustrator 19.1.0, SVG Export Plug-In . SVG Version: 6.00 Build 0)  -->
<svg version="1.1" id="Layer_1" xmlns="http://www.w3.org/2000/svg" xmlns:xlink="http://www.w3.org/1999/xlink" x="0px" y="0px"
	 viewBox="-63 11.8 512 458.2" style="enable-background:new -63 11.8 512 458.2;" xml:space="preserve">
<style type="text/css">
	.st0{fill:#FFFFFF;}
</style>
<path class="st0" d="M80.4,22.4h104.3L330.1,470h-87.7L202,343.2H59.9L21.3,470H-63L80.4,22.4z M107.7,171.2L73.1,281.4H188
	l-35.2-110.3c-8.6-27.2-15.9-57.8-22.6-83.7h-1.3C122.3,113.4,115.6,144.6,107.7,171.2z M357.4,56.3c0-25.2,18.6-44.5,45.8-44.5
	c27.9,0,45.2,19.3,45.8,44.5c0,24.6-17.9,43.8-46.5,43.8C375.3,100.1,357.4,80.8,357.4,56.3z M362,470V146.6h82.4V470L362,470
	L362,470z"/>
</svg>
