<?xml version="1.0" encoding="utf-8"?>
<!-- Generator: Adobe Illustrator 19.1.0, SVG Export Plug-In . SVG Version: 6.00 Build 0)  -->
<svg version="1.1" id="Layer_1" xmlns="http://www.w3.org/2000/svg" xmlns:xlink="http://www.w3.org/1999/xlink" x="0px" y="0px"
	 viewBox="-63 23.4 512 434.6" style="enable-background:new -63 23.4 512 434.6;" xml:space="preserve">
<style type="text/css">
	.st0{fill:#FFFFFF;}
</style>
<path class="st0" d="M-63,32.3c27.7-5,66.1-8.8,118.4-8.8c56.7,0,98.2,12,125.3,34.6c25.2,20.8,41.6,54.2,41.6,93.8
	c0,40.3-12.6,73.7-36.5,96.4c-30.9,30.9-79.4,45.3-134.1,45.3c-14.5,0-27.7-0.6-37.8-2.5v160H-63V32.3z M13.8,230
	c9.5,2.5,22,3.1,37.8,3.1c57.9,0,93.2-28.3,93.2-78.1c0-47.2-32.8-72.4-86.3-72.4c-21.4,0-36.5,1.9-44.7,3.8
	C13.8,86.4,13.8,230,13.8,230z M239.3,233.8c0-54.2,44.7-96.4,115.9-96.4c34,0,63.6,8.8,81.2,18.3l-15.1,54.8
	c-13.2-7.6-37.8-17.6-64.9-17.6c-27.7,0-42.8,13.2-42.8,32.1c0,19.5,14.5,29,53.5,42.8c55.4,20.1,81.2,48.5,81.9,93.8
	c0,55.4-43.5,96.4-124.7,96.4c-37.2,0-70.5-9.5-93.2-22l15.1-56c17.6,10.7,51,22,78.7,22c34,0,49.1-13.9,49.1-34
	c0-20.8-12.6-31.5-50.4-44.7C263.8,302.4,238.6,269.7,239.3,233.8z"/>
</svg>
