<?xml version="1.0" encoding="utf-8"?>
<!-- Generator: Adobe Illustrator 19.1.0, SVG Export Plug-In . SVG Version: 6.00 Build 0)  -->
<svg version="1.1" id="レイヤー_1" xmlns="http://www.w3.org/2000/svg" xmlns:xlink="http://www.w3.org/1999/xlink" x="0px"
	 y="0px" viewBox="180 -260 1000 1000" style="enable-background:new 180 -260 1000 1000;" xml:space="preserve">
<style type="text/css">
	.st0{fill:#FFFFFF;}
</style>
<path class="st0" d="M180,240c0-90.7,22.3-174.3,67-251s105.3-137.3,182-182s160.3-67,251-67s174.3,22.3,251,67s137.3,105.3,182,182
	s67,160.3,67,251s-22.3,174.3-67,251s-105.3,137.3-182,182s-160.3,67-251,67s-174.3-22.3-251-67S291.7,567.7,247,491
	S180,330.7,180,240z M219,240c0,90,23.8,172.3,71.5,247S401,617.7,479,655L259,52C232.3,111.3,219,174,219,240z M294-13h30
	c32,0,73-2,123-6c8-0.7,13.8,2,17.5,8s4.2,12.3,1.5,19s-8,10.3-16,11l-53,5l168,499l101-302L594,24c-16-2-32-3.7-48-5
	c-8-0.7-13.3-4.3-16-11s-2.2-13,1.5-19s9.5-8.7,17.5-8l121,6c32.7,0,73.7-2,123-6c8-0.7,13.8,2,17.5,8s4.2,12.3,1.5,19
	s-8,10.3-16,11l-52,5l166,496l46-154c24-78,36-127.7,36-149c0-42.7-13-85.3-39-128c-1.3-2-5.5-9-12.5-21S929,48.2,927,44.5
	s-5-10-9-19S911.3,8.7,910,2c-1.3-6.7-2-13.7-2-21c0-22,7.5-41.2,22.5-57.5S964-101,986-101c0.7,0,1.7,0.2,3,0.5s2.3,0.5,3,0.5
	c-87.3-80.7-191.3-121-312-121c-79.3,0-153,18.7-221,56S336-77,294-13z M550,683c41.3,12,84.7,18,130,18c53.3,0,104.3-8.7,153-26
	l-3-6L688,280L550,683z M912,639c70-40.7,125.7-96.5,167-167.5s62-148.2,62-231.5c0-80-18.7-153.7-56-221c2,14,3,29.7,3,47
	c0,42-11.7,97-35,165L912,639z"/>
</svg>
